<?xml version="1.0" encoding="UTF-8" standalone="no"?>
<!-- Created with Inkscape (http://www.inkscape.org/) -->

<svg
   xmlns:dc="http://purl.org/dc/elements/1.1/"
   xmlns:cc="http://creativecommons.org/ns#"
   xmlns:rdf="http://www.w3.org/1999/02/22-rdf-syntax-ns#"
   xmlns:svg="http://www.w3.org/2000/svg"
   xmlns="http://www.w3.org/2000/svg"
   xmlns:xlink="http://www.w3.org/1999/xlink"
   xmlns:sodipodi="http://sodipodi.sourceforge.net/DTD/sodipodi-0.dtd"
   xmlns:inkscape="http://www.inkscape.org/namespaces/inkscape"
   width="1000"
   height="784"
   id="svg2"
   version="1.1"
   inkscape:version="0.48.3.1 r9886"
   sodipodi:docname="scotland_yard.svg">
  <defs
     id="defs4" />
  <style
     type="text/css"
     id="style4">


      .stop text {
        font-size:6px;
        font-style:normal;
        font-variant:normal;
        font-weight:500;
        font-stretch:normal;
        line-height:125%;
        letter-spacing:0px;
        word-spacing:0px;
        fill:#000000;
        fill-opacity:1;
        stroke:none;
        font-family:TlwgMono;
        -inkscape-font-specification:TlwgMono Medium;
      }

      .stop path {
        fill:#DDDDDD;
        fill-opacity:1;
        stroke:#000000;
        stroke-opacity:1;
      }

      .stop rect {
        fill:#DDDDDD;
        fill-opacity:1;
        stroke:#000000;
        stroke-opacity:1;
      }

      .stop tspan {
        font-size:6px;
        font-style:normal;
        font-variant:normal;
        font-weight:normal;
        font-stretch:normal;
        text-align:center;
        text-anchor:middle;
        font-family:Droid Sans Mono;
        -inkscape-font-specification:Droid Sans Mono;
      }

      .stop:hover {
        cursor: pointer;
      }
      .stop:hover rect, .stop:hover path {
        fill:#EEEEEE;
      }

    </style>
  <sodipodi:namedview
     id="base"
     pagecolor="#ffffff"
     bordercolor="#666666"
     borderopacity="1.0"
     inkscape:pageopacity="0.0"
     inkscape:pageshadow="2"
     inkscape:zoom="2.257653"
     inkscape:cx="813.57257"
     inkscape:cy="137.25355"
     inkscape:document-units="px"
     inkscape:current-layer="layer2"
     showgrid="false"
     inkscape:window-width="1680"
     inkscape:window-height="995"
     inkscape:window-x="-2"
     inkscape:window-y="-3"
     inkscape:window-maximized="1" />
  <metadata
     id="metadata7">
    <rdf:RDF>
      <cc:Work
         rdf:about="">
        <dc:format>image/svg+xml</dc:format>
        <dc:type
           rdf:resource="http://purl.org/dc/dcmitype/StillImage" />
        <dc:title />
      </cc:Work>
    </rdf:RDF>
  </metadata>
  <g
     inkscape:label="Background"
     inkscape:groupmode="layer"
     id="layer1"
     transform="translate(0,-268.36218)"
     style="display:inline"
     sodipodi:insensitive="true">
    <image
       sodipodi:absref="/home/dexter/Projects/scotland_yard/scotland_yard.jpg"
       xlink:href="scotland_yard.jpg"
       y="268.36218"
       x="0"
       height="784"
       width="1000"
       id="image4242" />
  </g>
  <g
     inkscape:groupmode="layer"
     id="layer2"
     inkscape:label="Stops"
     style="opacity:1"> <g  class="stop" id="0">
      <path d="m 6.6816929,0.50008477 a 6.4356605,8.7588836 0 0 1 -12.871321,0 6.4356605,8.7588836 0 1 1 12.871321,0 z" />
      <rect height="7.0694928" width="17.539423" x="-8.6005955" y="-2.8380687" />
      <text y="2.6793449" x="-0.15570182" >
        <tspan>0</tspan>
      </text>
    </g>
    <g transform="translate(144.26831,72.690813)" class="stop" id="1">
      <path d="m 6.6816929,0.50008477 a 6.4356605,8.7588836 0 0 1 -12.871321,0 6.4356605,8.7588836 0 1 1 12.871321,0 z" />
      <rect height="7.0694928" width="17.539423" x="-8.6005955" y="-2.8380687" />
      <text y="2.6793449" x="-0.15570182" >
        <tspan>1</tspan>
      </text>
    </g>
    <g transform="translate(314.62229,35.396249)" class="stop" id="2">
      <path d="m 6.6816929,0.50008477 a 6.4356605,8.7588836 0 0 1 -12.871321,0 6.4356605,8.7588836 0 1 1 12.871321,0 z" />
      <rect height="7.0694928" width="17.539423" x="-8.6005955" y="-2.8380687" />
      <text y="2.6793449" x="-0.15570182" >
        <tspan>2</tspan>
      </text>
    </g>
    <g transform="translate(426.38003,48.887486)" class="stop" id="3">
      <path d="m 6.6816929,0.50008477 a 6.4356605,8.7588836 0 0 1 -12.871321,0 6.4356605,8.7588836 0 1 1 12.871321,0 z" />
      <rect height="7.0694928" width="17.539423" x="-8.6005955" y="-2.8380687" />
      <text y="2.6793449" x="-0.15570182">
        <tspan>3</tspan>
      </text>
    </g>
    <g transform="translate(477.09642,43.350763)" class="stop" id="4">
      <path d="m 6.6816929,0.50008477 a 6.4356605,8.7588836 0 0 1 -12.871321,0 6.4356605,8.7588836 0 1 1 12.871321,0 z" />
      <rect height="7.0694928" width="17.539423" x="-8.6005955" y="-2.8380687" />
      <text y="2.6793449" x="-0.15570182">
        <tspan>4</tspan>
      </text>
    </g>
    <g transform="translate(766.33484,71.255848)" class="stop" id="5">
      <path d="m 6.6816929,0.50008477 a 6.4356605,8.7588836 0 0 1 -12.871321,0 6.4356605,8.7588836 0 1 1 12.871321,0 z" />
      <rect height="7.0694928" width="17.539423" x="-8.6005955" y="-2.8380687" />
      <text y="2.6793449" x="-0.15570182">
        <tspan>5</tspan>
      </text>
    </g>
    <g transform="translate(848.05688,75.906695)" class="stop" id="6">
      <path d="m 6.6816929,0.50008477 a 6.4356605,8.7588836 0 0 1 -12.871321,0 6.4356605,8.7588836 0 1 1 12.871321,0 z" />
      <rect height="7.0694928" width="17.539423" x="-8.6005955" y="-2.8380687" />
      <text y="2.6793449" x="-0.15570182">
        <tspan>6</tspan>
      </text>
    </g>
    <g transform="translate(931.77213,79.228729)" class="stop" id="7">
      <path d="m 6.6816929,0.50008477 a 6.4356605,8.7588836 0 0 1 -12.871321,0 6.4356605,8.7588836 0 1 1 12.871321,0 z" />
      <rect height="7.0694928" width="17.539423" x="-8.6005955" y="-2.8380687" />
      <text y="2.6793449" x="-0.15570182">
        <tspan>7</tspan>
      </text>
    </g>
    <g transform="translate(115.46454,106.84748)" class="stop" id="8">
      <path d="m 6.6816929,0.50008477 a 6.4356605,8.7588836 0 0 1 -12.871321,0 6.4356605,8.7588836 0 1 1 12.871321,0 z" />
      <rect height="7.0694928" width="17.539423" x="-8.6005955" y="-2.8380687" />
      <text y="2.6793449" x="-0.15570182">
        <tspan>8</tspan>
      </text>
    </g>
    <g transform="translate(184.97891,114.61002)" class="stop" id="9">
      <path d="m 6.6816929,0.50008477 a 6.4356605,8.7588836 0 0 1 -12.871321,0 6.4356605,8.7588836 0 1 1 12.871321,0 z" />
      <rect height="7.0694928" width="17.539423" x="-8.6005955" y="-2.8380687" />
      <text y="2.6793449" x="-0.15570182">
        <tspan>9</tspan>
      </text>
    </g>
    <g transform="translate(376.54952,108.90557)" class="stop" id="10">
      <path d="m 6.6816929,0.50008477 a 6.4356605,8.7588836 0 0 1 -12.871321,0 6.4356605,8.7588836 0 1 1 12.871321,0 z" />
      <rect height="7.0694928" width="17.539423" x="-8.6005955" y="-2.8380687" />
      <text y="2.6793449" x="-0.15570182">
        <tspan>10</tspan>
      </text>
    </g>
    <g transform="translate(426.82298,106.91235)" class="stop" id="11">
      <path d="m 6.6816929,0.50008477 a 6.4356605,8.7588836 0 0 1 -12.871321,0 6.4356605,8.7588836 0 1 1 12.871321,0 z" />
      <rect height="7.0694928" width="17.539423" x="-8.6005955" y="-2.8380687" />
      <text y="2.6793449" x="-0.15570182">
        <tspan>11</tspan>
      </text>
    </g>
    <g transform="translate(456.05687,97.832119)" class="stop" id="12">
      <path d="m 6.6816929,0.50008477 a 6.4356605,8.7588836 0 0 1 -12.871321,0 6.4356605,8.7588836 0 1 1 12.871321,0 z" />
      <rect height="7.0694928" width="17.539423" x="-8.6005955" y="-2.8380687" />
      <text y="2.6793449" x="-0.15570182">
        <tspan>12</tspan>
      </text>
    </g>
    <g transform="translate(539.32919,119.97901)" class="stop" id="13">
      <path d="m 6.6816929,0.50008477 a 6.4356605,8.7588836 0 0 1 -12.871321,0 6.4356605,8.7588836 0 1 1 12.871321,0 z" />
      <rect height="7.0694928" width="17.539423" x="-8.6005955" y="-2.8380687" />
      <text y="2.6793449" x="-0.15570182">
        <tspan>13</tspan>
      </text>
    </g>
    <g transform="translate(626.80942,97.167712)" class="stop" id="14">
      <path d="m 6.6816929,0.50008477 a 6.4356605,8.7588836 0 0 1 -12.871321,0 6.4356605,8.7588836 0 1 1 12.871321,0 z" />
      <rect height="7.0694928" width="17.539423" x="-8.6005955" y="-2.8380687" />
      <text y="2.6793449" x="-0.15570182">
        <tspan>14</tspan>
      </text>
    </g>
    <g transform="translate(707.86704,94.731554)" class="stop" id="15">
      <path d="m 6.6816929,0.50008477 a 6.4356605,8.7588836 0 0 1 -12.871321,0 6.4356605,8.7588836 0 1 1 12.871321,0 z" />
      <rect height="7.0694928" width="17.539423" x="-8.6005955" y="-2.8380687" />
      <text y="2.6793449" x="-0.15570182">
        <tspan>15</tspan>
      </text>
    </g>
    <g transform="translate(780.50885,122.41517)" class="stop" id="16">
      <path d="m 6.6816929,0.50008477 a 6.4356605,8.7588836 0 0 1 -12.871321,0 6.4356605,8.7588836 0 1 1 12.871321,0 z" />
      <rect height="7.0694928" width="17.539423" x="-8.6005955" y="-2.8380687" />
      <text y="2.6793449" x="-0.15570182">
        <tspan>16</tspan>
      </text>
    </g>
    <g transform="translate(924.46365,151.4276)" class="stop" id="17">
      <path d="m 6.6816929,0.50008477 a 6.4356605,8.7588836 0 0 1 -12.871321,0 6.4356605,8.7588836 0 1 1 12.871321,0 z" />
      <rect height="7.0694928" width="17.539423" x="-8.6005955" y="-2.8380687" />
      <text y="2.6793449" x="-0.15570182">
        <tspan>17</tspan>
      </text>
    </g>
    <g transform="translate(76.172797,137.74566)" class="stop" id="18">
      <path d="m 6.6816929,0.50008477 a 6.4356605,8.7588836 0 0 1 -12.871321,0 6.4356605,8.7588836 0 1 1 12.871321,0 z" />
      <rect height="7.0694928" width="17.539423" x="-8.6005955" y="-2.8380687" />
      <text y="2.6793449" x="-0.15570182">
        <tspan>18</tspan>
      </text>
    </g>
    <g transform="translate(136.09914,145.8214)" class="stop" id="19">
      <path d="m 6.6816929,0.50008477 a 6.4356605,8.7588836 0 0 1 -12.871321,0 6.4356605,8.7588836 0 1 1 12.871321,0 z" />
      <rect height="7.0694928" width="17.539423" x="-8.6005955" y="-2.8380687" />
      <text y="2.6793449" x="-0.15570182">
        <tspan>19</tspan>
      </text>
    </g>
    <g transform="translate(223.13643,132.587)" class="stop" id="20">
      <path d="m 6.6816929,0.50008477 a 6.4356605,8.7588836 0 0 1 -12.871321,0 6.4356605,8.7588836 0 1 1 12.871321,0 z" />
      <rect height="7.0694928" width="17.539423" x="-8.6005955" y="-2.8380687" />
      <text y="2.6793449" x="-0.15570182">
        <tspan>20</tspan>
      </text>
    </g>
    <g transform="translate(300.14275,167.15189)" class="stop" id="21">
      <path d="m 6.6816929,0.50008477 a 6.4356605,8.7588836 0 0 1 -12.871321,0 6.4356605,8.7588836 0 1 1 12.871321,0 z" />
      <rect height="7.0694928" width="17.539423" x="-8.6005955" y="-2.8380687" />
      <text y="2.6793449" x="-0.15570182">
        <tspan>21</tspan>
      </text>
    </g>
    <g transform="translate(431.25235,180.44003)" class="stop" id="22">
      <path d="m 6.6816929,0.50008477 a 6.4356605,8.7588836 0 0 1 -12.871321,0 6.4356605,8.7588836 0 1 1 12.871321,0 z" />
      <rect height="7.0694928" width="17.539423" x="-8.6005955" y="-2.8380687" />
      <text y="2.6793449" x="-0.15570182">
        <tspan>22</tspan>
      </text>
    </g>
    <g transform="translate(492.82071,151.20613)" class="stop" id="23">
      <path d="m 6.6816929,0.50008477 a 6.4356605,8.7588836 0 0 1 -12.871321,0 6.4356605,8.7588836 0 1 1 12.871321,0 z" />
      <rect height="7.0694928" width="17.539423" x="-8.6005955" y="-2.8380687" />
      <text y="2.6793449" x="-0.15570182">
        <tspan>23</tspan>
      </text>
    </g>
    <g transform="translate(592.7032,153.64228)" class="stop" id="24">
      <path d="m 6.6816929,0.50008477 a 6.4356605,8.7588836 0 0 1 -12.871321,0 6.4356605,8.7588836 0 1 1 12.871321,0 z" />
      <rect height="7.0694928" width="17.539423" x="-8.6005955" y="-2.8380687" />
      <text y="2.6793449" x="-0.15570182">
        <tspan>24</tspan>
      </text>
    </g>
    <g transform="translate(637.21846,162.27958)" class="stop" id="25">
      <path d="m 6.6816929,0.50008477 a 6.4356605,8.7588836 0 0 1 -12.871321,0 6.4356605,8.7588836 0 1 1 12.871321,0 z" />
      <rect height="7.0694928" width="17.539423" x="-8.6005955" y="-2.8380687" />
      <text y="2.6793449" x="-0.15570182">
        <tspan>25</tspan>
      </text>
    </g>
    <g transform="translate(701.44445,114.88523)" class="stop" id="26">
      <path d="m 6.6816929,0.50008477 a 6.4356605,8.7588836 0 0 1 -12.871321,0 6.4356605,8.7588836 0 1 1 12.871321,0 z" />
      <rect height="7.0694928" width="17.539423" x="-8.6005955" y="-2.8380687" />
      <text y="2.6793449" x="-0.15570182">
        <tspan>26</tspan>
      </text>
    </g>
    <g transform="translate(709.41733,158.29314)" class="stop" id="27">
      <path d="m 6.6816929,0.50008477 a 6.4356605,8.7588836 0 0 1 -12.871321,0 6.4356605,8.7588836 0 1 1 12.871321,0 z" />
      <rect height="7.0694928" width="17.539423" x="-8.6005955" y="-2.8380687" />
      <text y="2.6793449" x="-0.15570182">
        <tspan>27</tspan>
      </text>
    </g>
    <g transform="translate(736.87947,137.47505)" class="stop" id="28">
      <path d="m 6.6816929,0.50008477 a 6.4356605,8.7588836 0 0 1 -12.871321,0 6.4356605,8.7588836 0 1 1 12.871321,0 z" />
      <rect height="7.0694928" width="17.539423" x="-8.6005955" y="-2.8380687" />
      <text y="2.6793449" x="-0.15570182">
        <tspan>28</tspan>
      </text>
    </g>
    <g transform="translate(844.95631,173.57449)" class="stop" id="29">
      <path d="m 6.6816929,0.50008477 a 6.4356605,8.7588836 0 0 1 -12.871321,0 6.4356605,8.7588836 0 1 1 12.871321,0 z" />
      <rect height="7.0694928" width="17.539423" x="-8.6005955" y="-2.8380687" />
      <text y="2.6793449" x="-0.15570182">
        <tspan>29</tspan>
      </text>
    </g>
    <g transform="translate(949.48964,168.70218)" class="stop" id="30">
      <path d="m 6.6816929,0.50008477 a 6.4356605,8.7588836 0 0 1 -12.871321,0 6.4356605,8.7588836 0 1 1 12.871321,0 z" />
      <rect height="7.0694928" width="17.539423" x="-8.6005955" y="-2.8380687" />
      <text y="2.6793449" x="-0.15570182" >
        <tspan>30</tspan>
      </text>
    </g>
    <g transform="translate(100.05344,168.98852)" class="stop" id="31">
      <path d="m 6.6816929,0.50008477 a 6.4356605,8.7588836 0 0 1 -12.871321,0 6.4356605,8.7588836 0 1 1 12.871321,0 z" />
      <rect height="7.0694928" width="17.539423" x="-8.6005955" y="-2.8380687" />
      <text y="2.6793449" x="-0.15570182">
        <tspan>31</tspan>
      </text>
    </g>
    <g transform="translate(192.06591,195.27845)" class="stop" id="32">
      <path d="m 6.6816929,0.50008477 a 6.4356605,8.7588836 0 0 1 -12.871321,0 6.4356605,8.7588836 0 1 1 12.871321,0 z" />
      <rect height="7.0694928" width="17.539423" x="-8.6005955" y="-2.8380687" />
      <text y="2.6793449" x="-0.15570182">
        <tspan>32</tspan>
      </text>
    </g>
    <g transform="translate(265.5936,187.0841)" class="stop" id="33">
      <path d="m 6.6816929,0.50008477 a 6.4356605,8.7588836 0 0 1 -12.871321,0 6.4356605,8.7588836 0 1 1 12.871321,0 z" />
      <rect height="7.0694928" width="17.539423" x="-8.6005955" y="-2.8380687" />
      <text y="2.6793449" x="-0.15570182">
        <tspan>33</tspan>
      </text>
    </g>
    <g transform="translate(380.09303,193.72816)" class="stop" id="34">
      <path d="m 6.6816929,0.50008477 a 6.4356605,8.7588836 0 0 1 -12.871321,0 6.4356605,8.7588836 0 1 1 12.871321,0 z" />
      <rect height="7.0694928" width="17.539423" x="-8.6005955" y="-2.8380687" />
      <text y="2.6793449" x="-0.15570182">
        <tspan>34</tspan>
      </text>
    </g>
    <g transform="translate(448.7484,219.19709)" class="stop" id="35">
      <path d="m 6.6816929,0.50008477 a 6.4356605,8.7588836 0 0 1 -12.871321,0 6.4356605,8.7588836 0 1 1 12.871321,0 z" />
      <rect height="7.0694928" width="17.539423" x="-8.6005955" y="-2.8380687" />
      <text y="2.6793449" x="-0.15570182">
        <tspan>35</tspan>
      </text>
    </g>
    <g transform="translate(475.54614,215.65358)" class="stop" id="36">
      <path d="m 6.6816929,0.50008477 a 6.4356605,8.7588836 0 0 1 -12.871321,0 6.4356605,8.7588836 0 1 1 12.871321,0 z" />
      <rect height="7.0694928" width="17.539423" x="-8.6005955" y="-2.8380687" />
      <text y="2.6793449" x="-0.15570182">
        <tspan>36</tspan>
      </text>
    </g>
    <g transform="translate(515.85348,184.86941)" class="stop" id="37">
      <path d="m 6.6816929,0.50008477 a 6.4356605,8.7588836 0 0 1 -12.871321,0 6.4356605,8.7588836 0 1 1 12.871321,0 z" />
      <rect height="7.0694928" width="17.539423" x="-8.6005955" y="-2.8380687" />
      <text y="2.6793449" x="-0.15570182">
        <tspan>37</tspan>
      </text>
    </g>
    <g transform="translate(605.5484,192.62082)" class="stop" id="38">
      <path d="m 6.6816929,0.50008477 a 6.4356605,8.7588836 0 0 1 -12.871321,0 6.4356605,8.7588836 0 1 1 12.871321,0 z" />
      <rect height="7.0694928" width="17.539423" x="-8.6005955" y="-2.8380687" />
      <text y="2.6793449" x="-0.15570182">
        <tspan>38</tspan>
      </text>
    </g>
    <g transform="translate(657.37212,178.66828)" class="stop" id="39">
      <path d="m 6.6816929,0.50008477 a 6.4356605,8.7588836 0 0 1 -12.871321,0 6.4356605,8.7588836 0 1 1 12.871321,0 z" />
      <rect height="7.0694928" width="17.539423" x="-8.6005955" y="-2.8380687" />
      <text y="2.6793449" x="-0.15570182">
        <tspan>39</tspan>
      </text>
    </g>
    <g transform="translate(727.57777,214.1033)" class="stop" id="40">
      <path d="m 6.6816929,0.50008477 a 6.4356605,8.7588836 0 0 1 -12.871321,0 6.4356605,8.7588836 0 1 1 12.871321,0 z" />
      <rect height="7.0694928" width="17.539423" x="-8.6005955" y="-2.8380687" />
      <text y="2.6793449" x="-0.15570182">
        <tspan>40</tspan>
      </text>
    </g>
    <g transform="translate(755.48286,202.80839)" class="stop" id="41">
      <path d="m 6.6816929,0.50008477 a 6.4356605,8.7588836 0 0 1 -12.871321,0 6.4356605,8.7588836 0 1 1 12.871321,0 z" />
      <rect height="7.0694928" width="17.539423" x="-8.6005955" y="-2.8380687" />
      <text y="2.6793449" x="-0.15570182">
        <tspan>41</tspan>
      </text>
    </g>
    <g transform="translate(927.34275,209.89539)" class="stop" id="42">
      <path d="m 6.6816929,0.50008477 a 6.4356605,8.7588836 0 0 1 -12.871321,0 6.4356605,8.7588836 0 1 1 12.871321,0 z" />
      <rect height="7.0694928" width="17.539423" x="-8.6005955" y="-2.8380687" />
      <text y="2.6793449" x="-0.15570182">
        <tspan>42</tspan>
      </text>
    </g>
    <g transform="translate(54.755178,199.92929)" class="stop" id="43">
      <path d="m 6.6816929,0.50008477 a 6.4356605,8.7588836 0 0 1 -12.871321,0 6.4356605,8.7588836 0 1 1 12.871321,0 z" />
      <rect height="7.0694928" width="17.539423" x="-8.6005955" y="-2.8380687" />
      <text y="2.6793449" x="-0.15570182">
        <tspan>43</tspan>
      </text>
    </g>
    <g transform="translate(147.55066,223.18353)" class="stop" id="44">
      <path d="m 6.6816929,0.50008477 a 6.4356605,8.7588836 0 0 1 -12.871321,0 6.4356605,8.7588836 0 1 1 12.871321,0 z" />
      <rect height="7.0694928" width="17.539423" x="-8.6005955" y="-2.8380687" />
      <text y="2.6793449" x="-0.15570182">
        <tspan>44</tspan>
      </text>
    </g>
    <g transform="translate(217.75631,235.14285)" class="stop" id="45">
      <path d="m 6.6816929,0.50008477 a 6.4356605,8.7588836 0 0 1 -12.871321,0 6.4356605,8.7588836 0 1 1 12.871321,0 z" />
      <rect height="7.0694928" width="17.539423" x="-8.6005955" y="-2.8380687" />
      <text y="2.6793449" x="-0.15570182">
        <tspan>45</tspan>
      </text>
    </g>
    <g transform="translate(271.79473,219.19709)" class="stop" id="46">
      <path d="m 6.6816929,0.50008477 a 6.4356605,8.7588836 0 0 1 -12.871321,0 6.4356605,8.7588836 0 1 1 12.871321,0 z" />
      <rect height="7.0694928" width="17.539423" x="-8.6005955" y="-2.8380687" />
      <text y="2.6793449" x="-0.15570182">
        <tspan>46</tspan>
      </text>
    </g>
    <g transform="translate(324.06139,205.46602)" class="stop" id="47">
      <path d="m 6.6816929,0.50008477 a 6.4356605,8.7588836 0 0 1 -12.871321,0 6.4356605,8.7588836 0 1 1 12.871321,0 z" />
      <rect height="7.0694928" width="17.539423" x="-8.6005955" y="-2.8380687" />
      <text y="2.6793449" x="-0.15570182">
        <tspan>47</tspan>
      </text>
    </g>
    <g transform="translate(393.38116,246.2163)" class="stop" id="48">
      <path d="m 6.6816929,0.50008477 a 6.4356605,8.7588836 0 0 1 -12.871321,0 6.4356605,8.7588836 0 1 1 12.871321,0 z" />
      <rect height="7.0694928" width="17.539423" x="-8.6005955" y="-2.8380687" />
      <text y="2.6793449" x="-0.15570182">
        <tspan>48</tspan>
      </text>
    </g>
    <g transform="translate(501.67948,250.86715)" class="stop" id="49">
      <path d="m 6.6816929,0.50008477 a 6.4356605,8.7588836 0 0 1 -12.871321,0 6.4356605,8.7588836 0 1 1 12.871321,0 z" />
      <rect height="7.0694928" width="17.539423" x="-8.6005955" y="-2.8380687" />
      <text y="2.6793449" x="-0.15570182">
        <tspan>49</tspan>
      </text>
    </g>
    <g transform="translate(543.09416,224.73382)" class="stop" id="50">
      <path d="m 6.6816929,0.50008477 a 6.4356605,8.7588836 0 0 1 -12.871321,0 6.4356605,8.7588836 0 1 1 12.871321,0 z" />
      <rect height="7.0694928" width="17.539423" x="-8.6005955" y="-2.8380687" />
      <text y="2.6793449" x="-0.15570182">
        <tspan>50</tspan>
      </text>
    </g>
    <g transform="translate(637.21845,225.39822)" class="stop" id="51">
      <path d="m 6.6816929,0.50008477 a 6.4356605,8.7588836 0 0 1 -12.871321,0 6.4356605,8.7588836 0 1 1 12.871321,0 z" />
      <rect height="7.0694928" width="17.539423" x="-8.6005955" y="-2.8380687" />
      <text y="2.6793449" x="-0.15570182">
        <tspan>51</tspan>
      </text>
    </g>
    <g transform="translate(689.26365,216.31799)" class="stop" id="52">
      <path d="m 6.6816929,0.50008477 a 6.4356605,8.7588836 0 0 1 -12.871321,0 6.4356605,8.7588836 0 1 1 12.871321,0 z" />
      <rect height="7.0694928" width="17.539423" x="-8.6005955" y="-2.8380687" />
      <text y="2.6793449" x="-0.15570182">
        <tspan>52</tspan>
      </text>
    </g>
    <g transform="translate(729.79246,250.42421)" class="stop" id="53">
      <path d="m 6.6816929,0.50008477 a 6.4356605,8.7588836 0 0 1 -12.871321,0 6.4356605,8.7588836 0 1 1 12.871321,0 z" />
      <rect height="7.0694928" width="17.539423" x="-8.6005955" y="-2.8380687" />
      <text y="2.6793449" x="-0.15570182">
        <tspan>53</tspan>
      </text>
    </g>
    <g transform="translate(766.33484,245.33042)" class="stop" id="54">
      <path d="m 6.6816929,0.50008477 a 6.4356605,8.7588836 0 0 1 -12.871321,0 6.4356605,8.7588836 0 1 1 12.871321,0 z" />
      <rect height="7.0694928" width="17.539423" x="-8.6005955" y="-2.8380687" />
      <text y="2.6793449" x="-0.15570182">
        <tspan>54</tspan>
      </text>
    </g>
    <g transform="translate(849.38569,241.56545)" class="stop" id="55">
      <path d="m 6.6816929,0.50008477 a 6.4356605,8.7588836 0 0 1 -12.871321,0 6.4356605,8.7588836 0 1 1 12.871321,0 z" />
      <rect height="7.0694928" width="17.539423" x="-8.6005955" y="-2.8380687" />
      <text y="2.6793449" x="-0.15570182">
        <tspan>55</tspan>
      </text>
    </g>
    <g transform="translate(954.14049,251.9745)" class="stop" id="56">
      <path d="m 6.6816929,0.50008477 a 6.4356605,8.7588836 0 0 1 -12.871321,0 6.4356605,8.7588836 0 1 1 12.871321,0 z" />
      <rect height="7.0694928" width="17.539423" x="-8.6005955" y="-2.8380687" />
      <text y="2.6793449" x="-0.15570182">
        <tspan>56</tspan>
      </text>
    </g>
    <g transform="translate(95.505461,246.8807)" class="stop" id="57">
      <path d="m 6.6816929,0.50008477 a 6.4356605,8.7588836 0 0 1 -12.871321,0 6.4356605,8.7588836 0 1 1 12.871321,0 z" />
      <rect height="7.0694928" width="17.539423" x="-8.6005955" y="-2.8380687" />
      <text y="2.6793449" x="-0.15570182">
        <tspan>57</tspan>
      </text>
    </g>
    <g transform="translate(171.02636,249.0954)" class="stop" id="58">
      <path d="m 6.6816929,0.50008477 a 6.4356605,8.7588836 0 0 1 -12.871321,0 6.4356605,8.7588836 0 1 1 12.871321,0 z" />
      <rect height="7.0694928" width="17.539423" x="-8.6005955" y="-2.8380687" />
      <text y="2.6793449" x="-0.15570182">
        <tspan>58</tspan>
      </text>
    </g>
    <g transform="translate(190.7371,272.79257)" class="stop" id="59">
      <path d="m 6.6816929,0.50008477 a 6.4356605,8.7588836 0 0 1 -12.871321,0 6.4356605,8.7588836 0 1 1 12.871321,0 z" />
      <rect height="7.0694928" width="17.539423" x="-8.6005955" y="-2.8380687" />
      <text y="2.6793449" x="-0.15570182">
        <tspan>59</tspan>
      </text>
    </g>
    <g transform="translate(228.60828,268.36319)" class="stop" id="60">
      <path d="m 6.6816929,0.50008477 a 6.4356605,8.7588836 0 0 1 -12.871321,0 6.4356605,8.7588836 0 1 1 12.871321,0 z" />
      <rect height="7.0694928" width="17.539423" x="-8.6005955" y="-2.8380687" />
      <text y="2.6793449" x="-0.15570182">
        <tspan>60</tspan>
      </text>
    </g>
    <g transform="translate(289.73371,282.09427)" class="stop" id="61">
      <path d="m 6.6816929,0.50008477 a 6.4356605,8.7588836 0 0 1 -12.871321,0 6.4356605,8.7588836 0 1 1 12.871321,0 z" />
      <rect height="7.0694928" width="17.539423" x="-8.6005955" y="-2.8380687" />
      <text y="2.6793449" x="-0.15570182">
        <tspan>61</tspan>
      </text>
    </g>
    <g transform="translate(320.96083,274.12138)" class="stop" id="62">
      <path d="m 6.6816929,0.50008477 a 6.4356605,8.7588836 0 0 1 -12.871321,0 6.4356605,8.7588836 0 1 1 12.871321,0 z" />
      <rect height="7.0694928" width="17.539423" x="-8.6005955" y="-2.8380687" />
      <text y="2.6793449" x="-0.15570182">
        <tspan>62</tspan>
      </text>
    </g>
    <g transform="translate(398.91789,309.99935)" class="stop" id="63">
      <path d="m 6.6816929,0.50008477 a 6.4356605,8.7588836 0 0 1 -12.871321,0 6.4356605,8.7588836 0 1 1 12.871321,0 z" />
      <rect height="7.0694928" width="17.539423" x="-8.6005955" y="-2.8380687" />
      <text y="2.6793449" x="-0.15570182">
        <tspan>63</tspan>
      </text>
    </g>
    <g transform="translate(449.19133,301.36207)" class="stop" id="64">
      <path d="m 6.6816929,0.50008477 a 6.4356605,8.7588836 0 0 1 -12.871321,0 6.4356605,8.7588836 0 1 1 12.871321,0 z" />
      <rect height="7.0694928" width="17.539423" x="-8.6005955" y="-2.8380687" />
      <text y="2.6793449" x="-0.15570182">
        <tspan>64</tspan>
      </text>
    </g>
    <g transform="translate(494.371,295.16094)" class="stop" id="65">
      <path d="m 6.6816929,0.50008477 a 6.4356605,8.7588836 0 0 1 -12.871321,0 6.4356605,8.7588836 0 1 1 12.871321,0 z" />
      <rect height="7.0694928" width="17.539423" x="-8.6005955" y="-2.8380687" />
      <text y="2.6793449" x="-0.15570182">
        <tspan>65</tspan>
      </text>
    </g>
    <g transform="translate(525.59811,287.85246)" class="stop" id="66">
      <path d="m 6.6816929,0.50008477 a 6.4356605,8.7588836 0 0 1 -12.871321,0 6.4356605,8.7588836 0 1 1 12.871321,0 z" />
      <rect height="7.0694928" width="17.539423" x="-8.6005955" y="-2.8380687" />
      <text y="2.6793449" x="-0.15570182">
        <tspan>66</tspan>
      </text>
    </g>
    <g transform="translate(576.53597,278.9937)" class="stop" id="67">
      <path d="m 6.6816929,0.50008477 a 6.4356605,8.7588836 0 0 1 -12.871321,0 6.4356605,8.7588836 0 1 1 12.871321,0 z" />
      <rect height="7.0694928" width="17.539423" x="-8.6005955" y="-2.8380687" />
      <text y="2.6793449" x="-0.15570182">
        <tspan>67</tspan>
      </text>
    </g>
    <g transform="translate(645.19134,270.79935)" class="stop" id="68">
      <path d="m 6.6816929,0.50008477 a 6.4356605,8.7588836 0 0 1 -12.871321,0 6.4356605,8.7588836 0 1 1 12.871321,0 z" />
      <rect height="7.0694928" width="17.539423" x="-8.6005955" y="-2.8380687" />
      <text y="2.6793449" x="-0.15570182">
        <tspan>68</tspan>
      </text>
    </g>
    <g transform="translate(700.55857,265.92704)" class="stop" id="69">
      <path d="m 6.6816929,0.50008477 a 6.4356605,8.7588836 0 0 1 -12.871321,0 6.4356605,8.7588836 0 1 1 12.871321,0 z" />
      <rect height="7.0694928" width="17.539423" x="-8.6005955" y="-2.8380687" />
      <text y="2.6793449" x="-0.15570182">
        <tspan>69</tspan>
      </text>
    </g>
    <g transform="translate(769.65687,281.8728)" class="stop" id="70">
      <path d="m 6.6816929,0.50008477 a 6.4356605,8.7588836 0 0 1 -12.871321,0 6.4356605,8.7588836 0 1 1 12.871321,0 z" />
      <rect height="7.0694928" width="17.539423" x="-8.6005955" y="-2.8380687" />
      <text y="2.6793449" x="-0.15570182">
        <tspan>70</tspan>
      </text>
    </g>
    <g transform="translate(836.54049,283.20161)" class="stop" id="71">
      <path d="m 6.6816929,0.50008477 a 6.4356605,8.7588836 0 0 1 -12.871321,0 6.4356605,8.7588836 0 1 1 12.871321,0 z" />
      <rect height="7.0694928" width="17.539423" x="-8.6005955" y="-2.8380687" />
      <text y="2.6793449" x="-0.15570182">
        <tspan>71</tspan>
      </text>
    </g>
    <g transform="translate(900.98794,287.40952)" class="stop" id="72">
      <path d="m 6.6816929,0.50008477 a 6.4356605,8.7588836 0 0 1 -12.871321,0 6.4356605,8.7588836 0 1 1 12.871321,0 z" />
      <rect height="7.0694928" width="17.539423" x="-8.6005955" y="-2.8380687" />
      <text y="2.6793449" x="-0.15570182">
        <tspan>72</tspan>
      </text>
    </g>
    <g transform="translate(83.324669,274.12139)" class="stop" id="73">
      <path d="m 6.6816929,0.50008477 a 6.4356605,8.7588836 0 0 1 -12.871321,0 6.4356605,8.7588836 0 1 1 12.871321,0 z" />
      <rect height="7.0694928" width="17.539423" x="-8.6005955" y="-2.8380687" />
      <text y="2.6793449" x="-0.15570182">
        <tspan>73</tspan>
      </text>
    </g>
    <g transform="translate(117.43088,310.44229)" class="stop" id="74">
      <path d="m 6.6816929,0.50008477 a 6.4356605,8.7588836 0 0 1 -12.871321,0 6.4356605,8.7588836 0 1 1 12.871321,0 z" />
      <rect height="7.0694928" width="17.539423" x="-8.6005955" y="-2.8380687" />
      <text y="2.6793449" x="-0.15570182">
        <tspan>74</tspan>
      </text>
    </g>
    <g transform="translate(159.50998,300.69765)" class="stop" id="75">
      <path d="m 6.6816929,0.50008477 a 6.4356605,8.7588836 0 0 1 -12.871321,0 6.4356605,8.7588836 0 1 1 12.871321,0 z" />
      <rect height="7.0694928" width="17.539423" x="-8.6005955" y="-2.8380687" />
      <text y="2.6793449" x="-0.15570182">
        <tspan>75</tspan>
      </text>
    </g>
    <g transform="translate(218.19924,302.91234)" class="stop" id="76">
      <path d="m 6.6816929,0.50008477 a 6.4356605,8.7588836 0 0 1 -12.871321,0 6.4356605,8.7588836 0 1 1 12.871321,0 z" />
      <rect height="7.0694928" width="17.539423" x="-8.6005955" y="-2.8380687" />
      <text y="2.6793449" x="-0.15570182">
        <tspan>76</tspan>
      </text>
    </g>
    <g transform="translate(248.76196,335.68974)" class="stop" id="77">
      <path d="m 6.6816929,0.50008477 a 6.4356605,8.7588836 0 0 1 -12.871321,0 6.4356605,8.7588836 0 1 1 12.871321,0 z" />
      <rect height="7.0694928" width="17.539423" x="-8.6005955" y="-2.8380687" />
      <text y="2.6793449" x="-0.15570182">
        <tspan>77</tspan>
      </text>
    </g>
    <g transform="translate(302.13597,328.15981)" class="stop" id="78">
      <path d="m 6.6816929,0.50008477 a 6.4356605,8.7588836 0 0 1 -12.871321,0 6.4356605,8.7588836 0 1 1 12.871321,0 z" />
      <rect height="7.0694928" width="17.539423" x="-8.6005955" y="-2.8380687" />
      <text y="2.6793449" x="-0.15570182">
        <tspan>78</tspan>
      </text>
    </g>
    <g transform="translate(335.57778,323.28748)" class="stop" id="79">
      <path d="m 6.6816929,0.50008477 a 6.4356605,8.7588836 0 0 1 -12.871321,0 6.4356605,8.7588836 0 1 1 12.871321,0 z" />
      <rect height="7.0694928" width="17.539423" x="-8.6005955" y="-2.8380687" />
      <text y="2.6793449" x="-0.15570182">
        <tspan>79</tspan>
      </text>
    </g>
    <g transform="translate(409.32693,339.01178)" class="stop" id="80">
      <path d="m 6.6816929,0.50008477 a 6.4356605,8.7588836 0 0 1 -12.871321,0 6.4356605,8.7588836 0 1 1 12.871321,0 z" />
      <rect height="7.0694928" width="17.539423" x="-8.6005955" y="-2.8380687" />
      <text y="2.6793449" x="-0.15570182">
        <tspan>80</tspan>
      </text>
    </g>
    <g transform="translate(477.31789,354.73607)" class="stop" id="81">
      <path d="m 6.6816929,0.50008477 a 6.4356605,8.7588836 0 0 1 -12.871321,0 6.4356605,8.7588836 0 1 1 12.871321,0 z" />
      <rect height="7.0694928" width="17.539423" x="-8.6005955" y="-2.8380687" />
      <text y="2.6793449" x="-0.15570182">
        <tspan>81</tspan>
      </text>
    </g>
    <g transform="translate(503.89416,337.01856)" class="stop" id="82">
      <path d="m 6.6816929,0.50008477 a 6.4356605,8.7588836 0 0 1 -12.871321,0 6.4356605,8.7588836 0 1 1 12.871321,0 z" />
      <rect height="7.0694928" width="17.539423" x="-8.6005955" y="-2.8380687" />
      <text y="2.6793449" x="-0.15570182">
        <tspan>82</tspan>
      </text>
    </g>
    <g transform="translate(563.02637,319.07958)" class="stop" id="83">
      <path d="m 6.6816929,0.50008477 a 6.4356605,8.7588836 0 0 1 -12.871321,0 6.4356605,8.7588836 0 1 1 12.871321,0 z" />
      <rect height="7.0694928" width="17.539423" x="-8.6005955" y="-2.8380687" />
      <text y="2.6793449" x="-0.15570182">
        <tspan>83</tspan>
      </text>
    </g>
    <g transform="translate(601.78342,310.22082)" class="stop" id="84">
      <path d="m 6.6816929,0.50008477 a 6.4356605,8.7588836 0 0 1 -12.871321,0 6.4356605,8.7588836 0 1 1 12.871321,0 z" />
      <rect height="7.0694928" width="17.539423" x="-8.6005955" y="-2.8380687" />
      <text y="2.6793449" x="-0.15570182">
        <tspan>84</tspan>
      </text>
    </g>
    <g transform="translate(644.30547,296.93268)" class="stop" id="85">
      <path d="m 6.6816929,0.50008477 a 6.4356605,8.7588836 0 0 1 -12.871321,0 6.4356605,8.7588836 0 1 1 12.871321,0 z" />
      <rect height="7.0694928" width="17.539423" x="-8.6005955" y="-2.8380687" />
      <text y="2.6793449" x="-0.15570182">
        <tspan>85</tspan>
      </text>
    </g>
    <g transform="translate(707.64557,324.6163)" class="stop" id="86">
      <path d="m 6.6816929,0.50008477 a 6.4356605,8.7588836 0 0 1 -12.871321,0 6.4356605,8.7588836 0 1 1 12.871321,0 z" />
      <rect height="7.0694928" width="17.539423" x="-8.6005955" y="-2.8380687" />
      <text y="2.6793449" x="-0.15570182">
        <tspan>86</tspan>
      </text>
    </g>
    <g transform="translate(774.30772,342.33381)" class="stop" id="87">
      <path d="m 6.6816929,0.50008477 a 6.4356605,8.7588836 0 0 1 -12.871321,0 6.4356605,8.7588836 0 1 1 12.871321,0 z" />
      <rect height="7.0694928" width="17.539423" x="-8.6005955" y="-2.8380687" />
      <text y="2.6793449" x="-0.15570182">
        <tspan>87</tspan>
      </text>
    </g>
    <g transform="translate(800.21959,348.97788)" class="stop" id="88">
      <path d="m 6.6816929,0.50008477 a 6.4356605,8.7588836 0 0 1 -12.871321,0 6.4356605,8.7588836 0 1 1 12.871321,0 z" />
      <rect height="7.0694928" width="17.539423" x="-8.6005955" y="-2.8380687" />
      <text y="2.6793449" x="-0.15570182">
        <tspan>88</tspan>
      </text>
    </g>
    <g transform="translate(833.66139,334.5824)" class="stop" id="89">
      <path d="m 6.6816929,0.50008477 a 6.4356605,8.7588836 0 0 1 -12.871321,0 6.4356605,8.7588836 0 1 1 12.871321,0 z" />
      <rect height="7.0694928" width="17.539423" x="-8.6005955" y="-2.8380687" />
      <text y="2.6793449" x="-0.15570182">
        <tspan>89</tspan>
      </text>
    </g>
    <g transform="translate(874.41167,335.02534)" class="stop" id="90">
      <path d="m 6.6816929,0.50008477 a 6.4356605,8.7588836 0 0 1 -12.871321,0 6.4356605,8.7588836 0 1 1 12.871321,0 z" />
      <rect height="7.0694928" width="17.539423" x="-8.6005955" y="-2.8380687" />
      <text y="2.6793449" x="-0.15570182">
        <tspan>90</tspan>
      </text>
    </g>
    <g transform="translate(942.40264,329.26714)" class="stop" id="91">
      <path d="m 6.6816929,0.50008477 a 6.4356605,8.7588836 0 0 1 -12.871321,0 6.4356605,8.7588836 0 1 1 12.871321,0 z" />
      <rect height="7.0694928" width="17.539423" x="-8.6005955" y="-2.8380687" />
      <text y="2.6793449" x="-0.15570182">
        <tspan>91</tspan>
      </text>
    </g>
    <g transform="translate(61.177777,349.42082)" class="stop" id="92">
      <path d="m 6.6816929,0.50008477 a 6.4356605,8.7588836 0 0 1 -12.871321,0 6.4356605,8.7588836 0 1 1 12.871321,0 z" />
      <rect height="7.0694928" width="17.539423" x="-8.6005955" y="-2.8380687" />
      <text y="2.6793449" x="-0.15570182">
        <tspan>92</tspan>
      </text>
    </g>
    <g transform="translate(64.056873,370.2389)" class="stop" id="93">
      <path d="m 6.6816929,0.50008477 a 6.4356605,8.7588836 0 0 1 -12.871321,0 6.4356605,8.7588836 0 1 1 12.871321,0 z" />
      <rect height="7.0694928" width="17.539423" x="-8.6005955" y="-2.8380687" />
      <text y="2.6793449" x="-0.15570182">
        <tspan>93</tspan>
      </text>
    </g>
    <g transform="translate(120.97439,357.61517)" class="stop" id="94">
      <path d="m 6.6816929,0.50008477 a 6.4356605,8.7588836 0 0 1 -12.871321,0 6.4356605,8.7588836 0 1 1 12.871321,0 z" />
      <rect height="7.0694928" width="17.539423" x="-8.6005955" y="-2.8380687" />
      <text y="2.6793449" x="-0.15570182">
        <tspan>94</tspan>
      </text>
    </g>
    <g transform="translate(150.42975,352.96432)" class="stop" id="95">
      <path d="m 6.6816929,0.50008477 a 6.4356605,8.7588836 0 0 1 -12.871321,0 6.4356605,8.7588836 0 1 1 12.871321,0 z" />
      <rect height="7.0694928" width="17.539423" x="-8.6005955" y="-2.8380687" />
      <text y="2.6793449" x="-0.15570182">
        <tspan>95</tspan>
      </text>
    </g>
    <g transform="translate(283.08964,379.98353)" class="stop" id="96">
      <path d="m 6.6816929,0.50008477 a 6.4356605,8.7588836 0 0 1 -12.871321,0 6.4356605,8.7588836 0 1 1 12.871321,0 z" />
      <rect height="7.0694928" width="17.539423" x="-8.6005955" y="-2.8380687" />
      <text y="2.6793449" x="-0.15570182">
        <tspan>96</tspan>
      </text>
    </g>
    <g transform="translate(313.65235,370.90331)" class="stop" id="97">
      <path d="m 6.6816929,0.50008477 a 6.4356605,8.7588836 0 0 1 -12.871321,0 6.4356605,8.7588836 0 1 1 12.871321,0 z" />
      <rect height="7.0694928" width="17.539423" x="-8.6005955" y="-2.8380687" />
      <text y="2.6793449" x="-0.15570182">
        <tspan>97</tspan>
      </text>
    </g>
    <g transform="translate(351.96648,358.50104)" class="stop" id="98">
      <path d="m 6.6816929,0.50008477 a 6.4356605,8.7588836 0 0 1 -12.871321,0 6.4356605,8.7588836 0 1 1 12.871321,0 z" />
      <rect height="7.0694928" width="17.539423" x="-8.6005955" y="-2.8380687" />
      <text y="2.6793449" x="-0.15570182">
        <tspan>98</tspan>
      </text>
    </g>
    <g transform="translate(388.95179,364.25924)" class="stop" id="99">
      <path d="m 6.6816929,0.50008477 a 6.4356605,8.7588836 0 0 1 -12.871321,0 6.4356605,8.7588836 0 1 1 12.871321,0 z" />
      <rect height="7.0694928" width="17.539423" x="-8.6005955" y="-2.8380687" />
      <text y="2.6793449" x="-0.15570182">
        <tspan>99</tspan>
      </text>
    </g>
    <g transform="translate(460.92919,380.42647)" class="stop" id="100">
      <path d="m 6.6816929,0.50008477 a 6.4356605,8.7588836 0 0 1 -12.871321,0 6.4356605,8.7588836 0 1 1 12.871321,0 z" />
      <rect height="7.0694928" width="17.539423" x="-8.6005955" y="-2.8380687" />
      <text y="2.6793449" x="-0.15570182">
        <tspan>100</tspan>
      </text>
    </g>
    <g transform="translate(518.51111,356.50782)" class="stop" id="101">
      <path d="m 6.6816929,0.50008477 a 6.4356605,8.7588836 0 0 1 -12.871321,0 6.4356605,8.7588836 0 1 1 12.871321,0 z" />
      <rect height="7.0694928" width="17.539423" x="-8.6005955" y="-2.8380687" />
      <text y="2.6793449" x="-0.15570182">
        <tspan>101</tspan>
      </text>
    </g>
    <g transform="translate(599.56873,336.35415)" class="stop" id="102">
      <path d="m 6.6816929,0.50008477 a 6.4356605,8.7588836 0 0 1 -12.871321,0 6.4356605,8.7588836 0 1 1 12.871321,0 z" />
      <rect height="7.0694928" width="17.539423" x="-8.6005955" y="-2.8380687" />
      <text y="2.6793449" x="-0.15570182">
        <tspan>102</tspan>
      </text>
    </g>
    <g transform="translate(652.72128,329.04568)" class="stop" id="103">
      <path d="m 6.6816929,0.50008477 a 6.4356605,8.7588836 0 0 1 -12.871321,0 6.4356605,8.7588836 0 1 1 12.871321,0 z" />
      <rect height="7.0694928" width="17.539423" x="-8.6005955" y="-2.8380687"/>
      <text y="2.6793449" x="-0.15570182">
        <tspan>103</tspan>
      </text>
    </g>
    <g transform="translate(709.41733,352.96432)" class="stop" id="104">
      <path d="m 6.6816929,0.50008477 a 6.4356605,8.7588836 0 0 1 -12.871321,0 6.4356605,8.7588836 0 1 1 12.871321,0 z" />
      <rect height="7.0694928" width="17.539423" x="-8.6005955" y="-2.8380687" />
      <text y="2.6793449" x="-0.15570182">
        <tspan>104</tspan>
      </text>
    </g>
    <g transform="translate(853.15066,367.80274)" class="stop" id="105">
      <path d="m 6.6816929,0.50008477 a 6.4356605,8.7588836 0 0 1 -12.871321,0 6.4356605,8.7588836 0 1 1 12.871321,0 z" />
      <rect height="7.0694928" width="17.539423" x="-8.6005955" y="-2.8380687" />
      <text y="2.6793449" x="-0.15570182">
        <tspan>105</tspan>
      </text>
    </g>
    <g transform="translate(916.71224,383.30556)" class="stop" id="106">
      <path d="m 6.6816929,0.50008477 a 6.4356605,8.7588836 0 0 1 -12.871321,0 6.4356605,8.7588836 0 1 1 12.871321,0 z" />
      <rect height="7.0694928" width="17.539423" x="-8.6005955" y="-2.8380687" />
      <text y="2.6793449" x="-0.15570182">
        <tspan>106</tspan>
      </text>
    </g>
    <g transform="translate(953.47608,380.64794)" class="stop" id="107">
      <path d="m 6.6816929,0.50008477 a 6.4356605,8.7588836 0 0 1 -12.871321,0 6.4356605,8.7588836 0 1 1 12.871321,0 z" />
      <rect height="7.0694928" width="17.539423" x="-8.6005955" y="-2.8380687" />
      <text y="2.6793449" x="-0.15570182">
        <tspan>107</tspan>
      </text>
    </g>
    <g transform="translate(837.8693,426.93494)" class="stop" id="108">
      <path d="m 6.6816929,0.50008477 a 6.4356605,8.7588836 0 0 1 -12.871321,0 6.4356605,8.7588836 0 1 1 12.871321,0 z" />
      <rect height="7.0694928" width="17.539423" x="-8.6005955" y="-2.8380687" />
      <text y="2.6793449" x="-0.15570182">
        <tspan>108</tspan>
      </text>
    </g>
    <g transform="translate(325.83314,428.70669)" class="stop" id="109">
      <path d="m 6.6816929,0.50008477 a 6.4356605,8.7588836 0 0 1 -12.871321,0 6.4356605,8.7588836 0 1 1 12.871321,0 z" />
      <rect height="7.0694928" width="17.539423" x="-8.6005955" y="-2.8380687" />
      <text y="2.6793449" x="-0.15570182">
        <tspan>109</tspan>
      </text>
    </g>
    <g transform="translate(371.67721,384.85585)" class="stop" id="110">
      <path d="m 6.6816929,0.50008477 a 6.4356605,8.7588836 0 0 1 -12.871321,0 6.4356605,8.7588836 0 1 1 12.871321,0 z" />
      <rect height="7.0694928" width="17.539423" x="-8.6005955" y="-2.8380687" />
      <text y="2.6793449" x="-0.15570182">
        <tspan>110</tspan>
      </text>
    </g>
    <g transform="translate(397.58908,416.74737)" class="stop" id="111"
       inkscape:transform-center-x="-5.7581922">
      <path d="m 6.6816929,0.50008477 a 6.4356605,8.7588836 0 0 1 -12.871321,0 6.4356605,8.7588836 0 1 1 12.871321,0 z" />
      <rect height="7.0694928" width="17.539423" x="-8.6005955" y="-2.8380687" />
      <text y="2.6793449" x="-0.15570182">
        <tspan>111</tspan>
      </text>
    </g>
    <g transform="translate(414.86365,406.11686)" class="stop" id="112">
      <path d="m 6.6816929,0.50008477 a 6.4356605,8.7588836 0 0 1 -12.871321,0 6.4356605,8.7588836 0 1 1 12.871321,0 z" />
      <rect height="7.0694928" width="17.539423" x="-8.6005955" y="-2.8380687" />
      <text y="2.6793449" x="-0.15570182">
        <tspan>112</tspan>
      </text>
    </g>
    <g transform="translate(476.87495,415.41856)" class="stop" id="113">
      <path d="m 6.6816929,0.50008477 a 6.4356605,8.7588836 0 0 1 -12.871321,0 6.4356605,8.7588836 0 1 1 12.871321,0 z" />
      <rect height="7.0694928" width="17.539423" x="-8.6005955" y="-2.8380687" />
      <text y="2.6793449" x="-0.15570182">
        <tspan>113</tspan>
      </text>
    </g>
    <g transform="translate(522.05461,407.00274)" class="stop" id="114">
      <path d="m 6.6816929,0.50008477 a 6.4356605,8.7588836 0 0 1 -12.871321,0 6.4356605,8.7588836 0 1 1 12.871321,0 z" />
      <rect height="7.0694928" width="17.539423" x="-8.6005955" y="-2.8380687" />
      <text y="2.6793449" x="-0.15570182">
        <tspan>114</tspan>
      </text>
    </g>
    <g transform="translate(593.81054,377.54737)" class="stop" id="115">
      <path d="m 6.6816929,0.50008477 a 6.4356605,8.7588836 0 0 1 -12.871321,0 6.4356605,8.7588836 0 1 1 12.871321,0 z" />
      <rect height="7.0694928" width="17.539423" x="-8.6005955" y="-2.8380687" />
      <text y="2.6793449" x="-0.15570182">
        <tspan>115</tspan>
      </text>
    </g>
    <g transform="translate(706.75969,418.96207)" class="stop" id="116">
      <path d="m 6.6816929,0.50008477 a 6.4356605,8.7588836 0 0 1 -12.871321,0 6.4356605,8.7588836 0 1 1 12.871321,0 z" />
      <rect height="7.0694928" width="17.539423" x="-8.6005955" y="-2.8380687" />
      <text y="2.6793449" x="-0.15570182">
        <tspan>116</tspan>
      </text>
    </g>
    <g transform="translate(780.06591,441.77336)" class="stop" id="117">
      <path d="m 6.6816929,0.50008477 a 6.4356605,8.7588836 0 0 1 -12.871321,0 6.4356605,8.7588836 0 1 1 12.871321,0 z" />
      <rect height="7.0694928" width="17.539423" x="-8.6005955" y="-2.8380687" />
      <text y="2.6793449" x="-0.15570182">
        <tspan>117</tspan>
      </text>
    </g>
    <g transform="translate(705.87382,461.92703)" class="stop" id="118">
      <path d="m 6.6816929,0.50008477 a 6.4356605,8.7588836 0 0 1 -12.871321,0 6.4356605,8.7588836 0 1 1 12.871321,0 z" />
      <rect height="7.0694928" width="17.539423" x="-8.6005955" y="-2.8380687" />
      <text y="2.6793449" x="-0.15570182">
        <tspan>118</tspan>
      </text>
    </g>
    <g transform="translate(932.21507,471.00726)" class="stop" id="119">
      <path d="m 6.6816929,0.50008477 a 6.4356605,8.7588836 0 0 1 -12.871321,0 6.4356605,8.7588836 0 1 1 12.871321,0 z" />
      <rect height="7.0694928" width="17.539423" x="-8.6005955" y="-2.8380687" />
      <text y="2.6793449" x="-0.15570182">
        <tspan>119</tspan>
      </text>
    </g>
    <g transform="translate(54.09077,488.72477)" class="stop" id="120">
      <path d="m 6.6816929,0.50008477 a 6.4356605,8.7588836 0 0 1 -12.871321,0 6.4356605,8.7588836 0 1 1 12.871321,0 z" />
      <rect height="7.0694928" width="17.539423" x="-8.6005955" y="-2.8380687" />
      <text y="2.6793449" x="-0.15570182">
        <tspan>120</tspan>
      </text>
    </g>
    <g transform="translate(84.432013,489.16772)" class="stop" id="121">
      <path d="m 6.6816929,0.50008477 a 6.4356605,8.7588836 0 0 1 -12.871321,0 6.4356605,8.7588836 0 1 1 12.871321,0 z" />
      <rect height="7.0694928" width="17.539423" x="-8.6005955" y="-2.8380687" />
      <text y="2.6793449" x="-0.15570182">
        <tspan>121</tspan>
      </text>
    </g>
    <g transform="translate(131.82636,482.96659)" class="stop" id="122">
      <path d="m 6.6816929,0.50008477 a 6.4356605,8.7588836 0 0 1 -12.871321,0 6.4356605,8.7588836 0 1 1 12.871321,0 z" />
      <rect height="7.0694928" width="17.539423" x="-8.6005955" y="-2.8380687" />
      <text y="2.6793449" x="-0.15570182">
        <tspan>122</tspan>
      </text>
    </g>
    <g transform="translate(247.87608,478.75867)" class="stop" id="123">
      <path d="m 6.6816929,0.50008477 a 6.4356605,8.7588836 0 0 1 -12.871321,0 6.4356605,8.7588836 0 1 1 12.871321,0 z" />
      <rect height="7.0694928" width="17.539423" x="-8.6005955" y="-2.8380687" />
      <text y="2.6793449" x="-0.15570182">
        <tspan>123</tspan>
      </text>
    </g>
    <g transform="translate(310.33032,464.14172)" class="stop" id="124">
      <path d="m 6.6816929,0.50008477 a 6.4356605,8.7588836 0 0 1 -12.871321,0 6.4356605,8.7588836 0 1 1 12.871321,0 z" />
      <rect height="7.0694928" width="17.539423" x="-8.6005955" y="-2.8380687" />
      <text y="2.6793449" x="-0.15570182">
        <tspan>124</tspan>
      </text>
    </g>
    <g transform="translate(433.02411,440.22308)" class="stop" id="125">
      <path d="m 6.6816929,0.50008477 a 6.4356605,8.7588836 0 0 1 -12.871321,0 6.4356605,8.7588836 0 1 1 12.871321,0 z" />
      <rect height="7.0694928" width="17.539423" x="-8.6005955" y="-2.8380687" />
      <text y="2.6793449" x="-0.15570182">
        <tspan>125</tspan>
      </text>
    </g>
    <g transform="translate(559.48286,418.96206)" class="stop" id="126">
      <path d="m 6.6816929,0.50008477 a 6.4356605,8.7588836 0 0 1 -12.871321,0 6.4356605,8.7588836 0 1 1 12.871321,0 z" />
      <rect height="7.0694928" width="17.539423" x="-8.6005955" y="-2.8380687" />
      <text y="2.6793449" x="-0.15570182">
        <tspan>126</tspan>
      </text>
    </g>
    <g transform="translate(632.12467,445.98127)" class="stop" id="127">
      <path d="m 6.6816929,0.50008477 a 6.4356605,8.7588836 0 0 1 -12.871321,0 6.4356605,8.7588836 0 1 1 12.871321,0 z" />
      <rect height="7.0694928" width="17.539423" x="-8.6005955" y="-2.8380687" />
      <text y="2.6793449" x="-0.15570182">
        <tspan>127</tspan>
      </text>
    </g>
    <g transform="translate(737.98681,570.88975)" class="stop" id="128">
      <path d="m 6.6816929,0.50008477 a 6.4356605,8.7588836 0 0 1 -12.871321,0 6.4356605,8.7588836 0 1 1 12.871321,0 z" />
      <rect height="7.0694928" width="17.539423" x="-8.6005955" y="-2.8380687" />
      <text y="2.6793449" x="-0.15570182">
        <tspan>128</tspan>
      </text>
    </g>
    <g transform="translate(773.42184,469.67845)" class="stop" id="129">
      <path d="m 6.6816929,0.50008477 a 6.4356605,8.7588836 0 0 1 -12.871321,0 6.4356605,8.7588836 0 1 1 12.871321,0 z" />
      <rect height="7.0694928" width="17.539423" x="-8.6005955" y="-2.8380687" />
      <text y="2.6793449" x="-0.15570182">
        <tspan>129</tspan>
      </text>
    </g>
    <g transform="translate(411.98455,481.4163)" class="stop" id="130">
      <path d="m 6.6816929,0.50008477 a 6.4356605,8.7588836 0 0 1 -12.871321,0 6.4356605,8.7588836 0 1 1 12.871321,0 z" />
      <rect height="7.0694928" width="17.539423" x="-8.6005955" y="-2.8380687" />
      <text y="2.6793449" x="-0.15570182">
        <tspan>130</tspan>
      </text>
    </g>
    <g transform="translate(448.96987,459.71235)" class="stop" id="131">
      <path d="m 6.6816929,0.50008477 a 6.4356605,8.7588836 0 0 1 -12.871321,0 6.4356605,8.7588836 0 1 1 12.871321,0 z" />
      <rect height="7.0694928" width="17.539423" x="-8.6005955" y="-2.8380687" />
      <text y="2.6793449" x="-0.15570182">
        <tspan>131</tspan>
      </text>
    </g>
    <g transform="translate(529.14162,459.2694)" class="stop" id="132">
      <path d="m 6.6816929,0.50008477 a 6.4356605,8.7588836 0 0 1 -12.871321,0 6.4356605,8.7588836 0 1 1 12.871321,0 z" />
      <rect height="7.0694928" width="17.539423" x="-8.6005955" y="-2.8380687" />
      <text y="2.6793449" x="-0.15570182">
        <tspan>132</tspan>
      </text>
    </g>
    <g transform="translate(601.11902,498.24793)" class="stop" id="133">
      <path d="m 6.6816929,0.50008477 a 6.4356605,8.7588836 0 0 1 -12.871321,0 6.4356605,8.7588836 0 1 1 12.871321,0 z" />
      <rect height="7.0694928" width="17.539423" x="-8.6005955" y="-2.8380687" />
      <text y="2.6793449" x="-0.15570182">
        <tspan>133</tspan>
      </text>
    </g>
    <g transform="translate(661.8015,480.30895)" class="stop" id="134">
      <path d="m 6.6816929,0.50008477 a 6.4356605,8.7588836 0 0 1 -12.871321,0 6.4356605,8.7588836 0 1 1 12.871321,0 z" />
      <rect height="7.0694928" width="17.539423" x="-8.6005955" y="-2.8380687" />
      <text y="2.6793449" x="-0.15570182">
        <tspan>134</tspan>
      </text>
    </g>
    <g transform="translate(801.32694,488.72477)" class="stop" id="135">
      <path d="m 6.6816929,0.50008477 a 6.4356605,8.7588836 0 0 1 -12.871321,0 6.4356605,8.7588836 0 1 1 12.871321,0 z" />
      <rect height="7.0694928" width="17.539423" x="-8.6005955" y="-2.8380687" />
      <text y="2.6793449" x="-0.15570182">
        <tspan>135</tspan>
      </text>
    </g>
    <g transform="translate(909.40377,537.44793)" class="stop" id="136">
      <path d="m 6.6816929,0.50008477 a 6.4356605,8.7588836 0 0 1 -12.871321,0 6.4356605,8.7588836 0 1 1 12.871321,0 z" />
      <rect height="7.0694928" width="17.539423" x="-8.6005955" y="-2.8380687" />
      <text y="2.6793449" x="-0.15570182">
        <tspan>136</tspan>
      </text>
    </g>
    <g transform="translate(211.99812,523.4954)" class="stop" id="137">
      <path d="m 6.6816929,0.50008477 a 6.4356605,8.7588836 0 0 1 -12.871321,0 6.4356605,8.7588836 0 1 1 12.871321,0 z" />
      <rect height="7.0694928" width="17.539423" x="-8.6005955" y="-2.8380687" />
      <text y="2.6793449" x="-0.15570182">
        <tspan>137</tspan>
      </text>
    </g>
    <g transform="translate(335.35631,502.01291)" class="stop" id="138">
      <path d="m 6.6816929,0.50008477 a 6.4356605,8.7588836 0 0 1 -12.871321,0 6.4356605,8.7588836 0 1 1 12.871321,0 z" />
      <rect height="7.0694928" width="17.539423" x="-8.6005955" y="-2.8380687" />
      <text y="2.6793449" x="-0.15570182">
        <tspan>138</tspan>
      </text>
    </g>
    <g transform="translate(408.44106,506.22082)" class="stop" id="139">
      <path d="m 6.6816929,0.50008477 a 6.4356605,8.7588836 0 0 1 -12.871321,0 6.4356605,8.7588836 0 1 1 12.871321,0 z" />
      <rect height="7.0694928" width="17.539423" x="-8.6005955" y="-2.8380687" />
      <text y="2.6793449" x="-0.15570182">
        <tspan>139</tspan>
      </text>
    </g>
    <g transform="translate(529.80603,497.58353)" class="stop" id="140">
      <path d="m 6.6816929,0.50008477 a 6.4356605,8.7588836 0 0 1 -12.871321,0 6.4356605,8.7588836 0 1 1 12.871321,0 z" />
      <rect height="7.0694928" width="17.539423" x="-8.6005955" y="-2.8380687" />
      <text y="2.6793449" x="-0.15570182">
        <tspan>140</tspan>
      </text>
    </g>
    <g transform="translate(627.03088,513.30782)" class="stop" id="141">
      <path d="m 6.6816929,0.50008477 a 6.4356605,8.7588836 0 0 1 -12.871321,0 6.4356605,8.7588836 0 1 1 12.871321,0 z" />
      <rect height="7.0694928" width="17.539423" x="-8.6005955" y="-2.8380687"/>
      <text y="2.6793449" x="-0.15570182">
        <tspan>141</tspan>
      </text>
    </g>
    <g transform="translate(702.99473,525.48862)" class="stop" id="142">
      <path d="m 6.6816929,0.50008477 a 6.4356605,8.7588836 0 0 1 -12.871321,0 6.4356605,8.7588836 0 1 1 12.871321,0 z" />
      <rect height="7.0694928" width="17.539423" x="-8.6005955" y="-2.8380687" />
      <text y="2.6793449" x="-0.15570182">
        <tspan>142</tspan>
      </text>
    </g>
    <g transform="translate(768.771,517.7372)" class="stop" id="143">
      <path d="m 6.6816929,0.50008477 a 6.4356605,8.7588836 0 0 1 -12.871321,0 6.4356605,8.7588836 0 1 1 12.871321,0 z" />
      <rect height="7.0694928" width="17.539423" x="-8.6005955" y="-2.8380687" />
      <text y="2.6793449" x="-0.15570182">
        <tspan>143</tspan>
      </text>
    </g>
    <g transform="translate(64.056872,574.65471)" class="stop" id="144">
      <path d="m 6.6816929,0.50008477 a 6.4356605,8.7588836 0 0 1 -12.871321,0 6.4356605,8.7588836 0 1 1 12.871321,0 z" />
      <rect height="7.0694928" width="17.539423" x="-8.6005955" y="-2.8380687" />
      <text y="2.6793449" x="-0.15570182">
        <tspan>144</tspan>
      </text>
    </g>
    <g transform="translate(95.062523,570.88975)" class="stop" id="145">
      <path d="m 6.6816929,0.50008477 a 6.4356605,8.7588836 0 0 1 -12.871321,0 6.4356605,8.7588836 0 1 1 12.871321,0 z" />
      <rect height="7.0694928" width="17.539423" x="-8.6005955" y="-2.8380687" />
      <text y="2.6793449" x="-0.15570182">
        <tspan>145</tspan>
      </text>
    </g>
    <g transform="translate(140.24218,564.46715)" class="stop" id="146">
      <path d="m 6.6816929,0.50008477 a 6.4356605,8.7588836 0 0 1 -12.871321,0 6.4356605,8.7588836 0 1 1 12.871321,0 z" />
      <rect height="7.0694928" width="17.539423" x="-8.6005955" y="-2.8380687" />
      <text y="2.6793449" x="-0.15570182">
        <tspan>146</tspan>
      </text>
    </g>
    <g transform="translate(175.01281,555.38693)" class="stop" id="147">
      <path d="m 6.6816929,0.50008477 a 6.4356605,8.7588836 0 0 1 -12.871321,0 6.4356605,8.7588836 0 1 1 12.871321,0 z" />
      <rect height="7.0694928" width="17.539423" x="-8.6005955" y="-2.8380687" />
      <text y="2.6793449" x="-0.15570182">
        <tspan>147</tspan>
      </text>
    </g>
    <g transform="translate(221.52128,548.07845)" class="stop" id="148">
      <path d="m 6.6816929,0.50008477 a 6.4356605,8.7588836 0 0 1 -12.871321,0 6.4356605,8.7588836 0 1 1 12.871321,0 z" />
      <rect height="7.0694928" width="17.539423" x="-8.6005955" y="-2.8380687" />
      <text y="2.6793449" x="-0.15570182">
        <tspan>148</tspan>
      </text>
    </g>
    <g transform="translate(260.05688,545.86376)" class="stop" id="149">
      <path d="m 6.6816929,0.50008477 a 6.4356605,8.7588836 0 0 1 -12.871321,0 6.4356605,8.7588836 0 1 1 12.871321,0 z" />
      <rect height="7.0694928" width="17.539423" x="-8.6005955" y="-2.8380687" />
      <text y="2.6793449" x="-0.15570182">
        <tspan>149</tspan>
      </text>
    </g>
    <g transform="translate(304.12919,532.35415)" class="stop" id="150">
      <path d="m 6.6816929,0.50008477 a 6.4356605,8.7588836 0 0 1 -12.871321,0 6.4356605,8.7588836 0 1 1 12.871321,0 z" />
      <rect height="7.0694928" width="17.539423" x="-8.6005955" y="-2.8380687" />
      <text y="2.6793449" x="-0.15570182">
        <tspan>150</tspan>
      </text>
    </g>
    <g transform="translate(326.71902,556.49426)" class="stop" id="151">
      <path d="m 6.6816929,0.50008477 a 6.4356605,8.7588836 0 0 1 -12.871321,0 6.4356605,8.7588836 0 1 1 12.871321,0 z" />
      <rect height="7.0694928" width="17.539423" x="-8.6005955" y="-2.8380687" />
      <text y="2.6793449" x="-0.15570182">
        <tspan>151</tspan>
      </text>
    </g>
    <g transform="translate(358.61055,533.01856)" class="stop" id="152">
      <path d="m 6.6816929,0.50008477 a 6.4356605,8.7588836 0 0 1 -12.871321,0 6.4356605,8.7588836 0 1 1 12.871321,0 z" />
      <rect height="7.0694928" width="17.539423" x="-8.6005955" y="-2.8380687" />
      <text y="2.6793449" x="-0.15570182">
        <tspan>152</tspan>
      </text>
    </g>
    <g transform="translate(376.32806,554.27958)" class="stop" id="153">
      <path d="m 6.6816929,0.50008477 a 6.4356605,8.7588836 0 0 1 -12.871321,0 6.4356605,8.7588836 0 1 1 12.871321,0 z" />
      <rect height="7.0694928" width="17.539423" x="-8.6005955" y="-2.8380687" />
      <text y="2.6793449" x="-0.15570182">
        <tspan>153</tspan>
      </text>
    </g>
    <g transform="translate(456.49981,541.21291)" class="stop" id="154">
      <path d="m 6.6816929,0.50008477 a 6.4356605,8.7588836 0 0 1 -12.871321,0 6.4356605,8.7588836 0 1 1 12.871321,0 z" />
      <rect height="7.0694928" width="17.539423" x="-8.6005955" y="-2.8380687" />
      <text y="2.6793449" x="-0.15570182">
        <tspan>154</tspan>
      </text>
    </g>
    <g transform="translate(477.76083,578.64116)" class="stop" id="155">
      <path d="m 6.6816929,0.50008477 a 6.4356605,8.7588836 0 0 1 -12.871321,0 6.4356605,8.7588836 0 1 1 12.871321,0 z" />
      <rect height="7.0694928" width="17.539423" x="-8.6005955" y="-2.8380687" />
      <text y="2.6793449" x="-0.15570182">
        <tspan>155</tspan>
      </text>
    </g>
    <g transform="translate(535.78569,577.75528)" class="stop" id="156">
      <path d="m 6.6816929,0.50008477 a 6.4356605,8.7588836 0 0 1 -12.871321,0 6.4356605,8.7588836 0 1 1 12.871321,0 z" />
      <rect height="7.0694928" width="17.539423" x="-8.6005955" y="-2.8380687" />
      <text y="2.6793449" x="-0.15570182">
        <tspan>156</tspan>
      </text>
    </g>
    <g transform="translate(571.44218,583.51348)" class="stop" id="157">
      <path d="m 6.6816929,0.50008477 a 6.4356605,8.7588836 0 0 1 -12.871321,0 6.4356605,8.7588836 0 1 1 12.871321,0 z" />
      <rect height="7.0694928" width="17.539423" x="-8.6005955" y="-2.8380687" />
      <text y="2.6793449" x="-0.15570182">
        <tspan>157</tspan>
      </text>
    </g>
    <g transform="translate(650.06366,555.16545)" class="stop" id="158">
      <path d="m 6.6816929,0.50008477 a 6.4356605,8.7588836 0 0 1 -12.871321,0 6.4356605,8.7588836 0 1 1 12.871321,0 z" />
      <rect height="7.0694928" width="17.539423" x="-8.6005955" y="-2.8380687" />
      <text y="2.6793449" x="-0.15570182">
        <tspan>158</tspan>
      </text>
    </g>
    <g transform="translate(652.49981,650.84003)" class="stop" id="159">
      <path d="m 6.6816929,0.50008477 a 6.4356605,8.7588836 0 0 1 -12.871321,0 6.4356605,8.7588836 0 1 1 12.871321,0 z" />
      <rect height="7.0694928" width="17.539423" x="-8.6005955" y="-2.8380687" />
      <text y="2.6793449" x="-0.15570182">
        <tspan>159</tspan>
      </text>
    </g>
    <g transform="translate(797.11902,582.6276)" class="stop" id="160">
      <path d="m 6.6816929,0.50008477 a 6.4356605,8.7588836 0 0 1 -12.871321,0 6.4356605,8.7588836 0 1 1 12.871321,0 z" />
      <rect height="7.0694928" width="17.539423" x="-8.6005955" y="-2.8380687" />
      <text y="2.6793449" x="-0.15570182">
        <tspan>160</tspan>
      </text>
    </g>
    <g transform="translate(862.89529,581.29878)" class="stop" id="161">
      <path d="m 6.6816929,0.50008477 a 6.4356605,8.7588836 0 0 1 -12.871321,0 6.4356605,8.7588836 0 1 1 12.871321,0 z" />
      <rect height="7.0694928" width="17.539423" x="-8.6005955" y="-2.8380687" />
      <text y="2.6793449" x="-0.15570182">
        <tspan>161</tspan>
      </text>
    </g>
    <g transform="translate(949.93258,588.60726)" class="stop" id="162">
      <path d="m 6.6816929,0.50008477 a 6.4356605,8.7588836 0 0 1 -12.871321,0 6.4356605,8.7588836 0 1 1 12.871321,0 z" />
      <rect height="7.0694928" width="17.539423" x="-8.6005955" y="-2.8380687" />
      <text y="2.6793449" x="-0.15570182">
        <tspan>162</tspan>
      </text>
    </g>
    <g transform="translate(137.58456,587.72138)" class="stop" id="163">
      <path d="m 6.6816929,0.50008477 a 6.4356605,8.7588836 0 0 1 -12.871321,0 6.4356605,8.7588836 0 1 1 12.871321,0 z" />
      <rect height="7.0694928" width="17.539423" x="-8.6005955" y="-2.8380687" />
      <text y="2.6793449" x="-0.15570182">
        <tspan>163</tspan>
      </text>
    </g>
    <g transform="translate(177.8919,595.47279)" class="stop" id="164">
      <path d="m 6.6816929,0.50008477 a 6.4356605,8.7588836 0 0 1 -12.871321,0 6.4356605,8.7588836 0 1 1 12.871321,0 z" />
      <rect height="7.0694928" width="17.539423" x="-8.6005955" y="-2.8380687" />
      <text y="2.6793449" x="-0.15570182">
        <tspan>164</tspan>
      </text>
    </g>
    <g transform="translate(270.90885,606.32478)" class="stop" id="165">
      <path d="m 6.6816929,0.50008477 a 6.4356605,8.7588836 0 0 1 -12.871321,0 6.4356605,8.7588836 0 1 1 12.871321,0 z" />
      <rect height="7.0694928" width="17.539423" x="-8.6005955" y="-2.8380687" />
      <text y="2.6793449" x="-0.15570182">
        <tspan>165</tspan>
      </text>
    </g>
    <g transform="translate(361.04671,588.16432)" class="stop" id="166">
      <path d="m 6.6816929,0.50008477 a 6.4356605,8.7588836 0 0 1 -12.871321,0 6.4356605,8.7588836 0 1 1 12.871321,0 z" />
      <rect height="7.0694928" width="17.539423" x="-8.6005955" y="-2.8380687" />
      <text y="2.6793449" x="-0.15570182">
        <tspan>166</tspan>
      </text>
    </g>
    <g transform="translate(432.13823,604.99596)" class="stop" id="167">
      <path d="m 6.6816929,0.50008477 a 6.4356605,8.7588836 0 0 1 -12.871321,0 6.4356605,8.7588836 0 1 1 12.871321,0 z" />
      <rect height="7.0694928" width="17.539423" x="-8.6005955" y="-2.8380687" />
      <text y="2.6793449" x="-0.15570182">
        <tspan>167</tspan>
      </text>
    </g>
    <g transform="translate(458.27156,624.48523)" class="stop" id="168">
      <path d="m 6.6816929,0.50008477 a 6.4356605,8.7588836 0 0 1 -12.871321,0 6.4356605,8.7588836 0 1 1 12.871321,0 z" />
      <rect height="7.0694928" width="17.539423" x="-8.6005955" y="-2.8380687" />
      <text y="2.6793449" x="-0.15570182">
        <tspan>168</tspan>
      </text>
    </g>
    <g transform="translate(533.34952,615.84794)" class="stop" id="169">
      <path d="m 6.6816929,0.50008477 a 6.4356605,8.7588836 0 0 1 -12.871321,0 6.4356605,8.7588836 0 1 1 12.871321,0 z" />
      <rect height="7.0694928" width="17.539423" x="-8.6005955" y="-2.8380687" />
      <text y="2.6793449" x="-0.15570182">
        <tspan>169</tspan>
      </text>
    </g>
    <g transform="translate(566.56987,610.31122)" class="stop" id="170">
      <path d="m 6.6816929,0.50008477 a 6.4356605,8.7588836 0 0 1 -12.871321,0 6.4356605,8.7588836 0 1 1 12.871321,0 z" />
      <rect height="7.0694928" width="17.539423" x="-8.6005955" y="-2.8380687" />
      <text y="2.6793449" x="-0.15570182">
        <tspan>170</tspan>
      </text>
    </g>
    <g transform="translate(843.18456,724.14624)" class="stop" id="171">
      <path
         d="m 6.6816929,0.50008477 a 6.4356605,8.7588836 0 0 1 -12.871321,0 6.4356605,8.7588836 0 1 1 12.871321,0 z"
         id="path6395" />
      <rect height="7.0694928" width="17.539423" x="-8.6005955" y="-2.8380687"/>
      <text y="2.6793449" x="-0.15570182">
        <tspan id="tspan6401">171</tspan>
      </text>
    </g>
    <g transform="translate(717.16874,623.59935)" class="stop" id="172">
      <path d="m 6.6816929,0.50008477 a 6.4356605,8.7588836 0 0 1 -12.871321,0 6.4356605,8.7588836 0 1 1 12.871321,0 z" />
      <rect height="7.0694928" width="17.539423" x="-8.6005955" y="-2.8380687" />
      <text y="2.6793449" x="-0.15570182">
        <tspan>172</tspan>
      </text>
    </g>
    <g transform="translate(813.95066,652.39031)" class="stop" id="173">
      <path d="m 6.6816929,0.50008477 a 6.4356605,8.7588836 0 0 1 -12.871321,0 6.4356605,8.7588836 0 1 1 12.871321,0 z" />
      <rect height="7.0694928" width="17.539423" x="-8.6005955" y="-2.8380687" />
      <text y="2.6793449" x="-0.15570182">
        <tspan>173</tspan>
      </text>
    </g>
    <g transform="translate(898.99473,630.68635)" class="stop" id="174">
      <path d="m 6.6816929,0.50008477 a 6.4356605,8.7588836 0 0 1 -12.871321,0 6.4356605,8.7588836 0 1 1 12.871321,0 z" />
      <rect height="7.0694928" width="17.539423" x="-8.6005955" y="-2.8380687" />
      <text y="2.6793449" x="-0.15570182">
        <tspan>174</tspan>
      </text>
    </g>
    <g transform="translate(937.75179,666.12138)" class="stop" id="175">
      <path d="m 6.6816929,0.50008477 a 6.4356605,8.7588836 0 0 1 -12.871321,0 6.4356605,8.7588836 0 1 1 12.871321,0 z" />
      <rect height="7.0694928" width="17.539423" x="-8.6005955" y="-2.8380687" />
      <text y="2.6793449" x="-0.15570182">
        <tspan>175</tspan>
      </text>
    </g>
    <g transform="translate(39.695291,632.01517)" class="stop" id="176">
      <path d="m 6.6816929,0.50008477 a 6.4356605,8.7588836 0 0 1 -12.871321,0 6.4356605,8.7588836 0 1 1 12.871321,0 z" />
      <rect height="7.0694928" width="17.539423" x="-8.6005955" y="-2.8380687" />
      <text y="2.6793449" x="-0.15570182">
        <tspan>176</tspan>
      </text>
    </g>
    <g transform="translate(85.982296,623.59935)" class="stop" id="177">
      <path d="m 6.6816929,0.50008477 a 6.4356605,8.7588836 0 0 1 -12.871321,0 6.4356605,8.7588836 0 1 1 12.871321,0 z" />
      <rect height="7.0694928" width="17.539423" x="-8.6005955" y="-2.8380687" />
      <text y="2.6793449" x="-0.15570182">
        <tspan>177</tspan>
      </text>
    </g>
    <g transform="translate(155.0806,617.39821)" class="stop" id="178">
      <path d="m 6.6816929,0.50008477 a 6.4356605,8.7588836 0 0 1 -12.871321,0 6.4356605,8.7588836 0 1 1 12.871321,0 z" />
      <rect height="7.0694928" width="17.539423" x="-8.6005955" y="-2.8380687" />
      <text y="2.6793449" x="-0.15570182">
        <tspan>178</tspan>
      </text>
    </g>
    <g transform="translate(233.70207,636.00161)" class="stop" id="179">
      <path d="m 6.6816929,0.50008477 a 6.4356605,8.7588836 0 0 1 -12.871321,0 6.4356605,8.7588836 0 1 1 12.871321,0 z" />
      <rect height="7.0694928" width="17.539423" x="-8.6005955" y="-2.8380687" />
      <text y="2.6793449" x="-0.15570182">
        <tspan>179</tspan>
      </text>
    </g>
    <g transform="translate(285.74727,645.96772)" class="stop" id="180">
      <path d="m 6.6816929,0.50008477 a 6.4356605,8.7588836 0 0 1 -12.871321,0 6.4356605,8.7588836 0 1 1 12.871321,0 z" />
      <rect height="7.0694928" width="17.539423" x="-8.6005955" y="-2.8380687" />
      <text y="2.6793449" x="-0.15570182">
        <tspan>180</tspan>
      </text>
    </g>
    <g transform="translate(334.6919,631.57223)" class="stop" id="181">
      <path d="m 6.6816929,0.50008477 a 6.4356605,8.7588836 0 0 1 -12.871321,0 6.4356605,8.7588836 0 1 1 12.871321,0 z" />
      <rect height="7.0694928" width="17.539423" x="-8.6005955" y="-2.8380687" />
      <text y="2.6793449" x="-0.15570182">
        <tspan>181</tspan>
      </text>
    </g>
    <g transform="translate(356.17438,641.98127)" class="stop" id="182">
      <path d="m 6.6816929,0.50008477 a 6.4356605,8.7588836 0 0 1 -12.871321,0 6.4356605,8.7588836 0 1 1 12.871321,0 z" />
      <rect height="7.0694928" width="17.539423" x="-8.6005955" y="-2.8380687" />
      <text y="2.6793449" x="-0.15570182">
        <tspan>182</tspan>
      </text>
    </g>
    <g transform="translate(408.66252,616.73381)" class="stop" id="183">
      <path d="m 6.6816929,0.50008477 a 6.4356605,8.7588836 0 0 1 -12.871321,0 6.4356605,8.7588836 0 1 1 12.871321,0 z" />
      <rect height="7.0694928" width="17.539423" x="-8.6005955" y="-2.8380687" />
      <text y="2.6793449" x="-0.15570182">
        <tspan>183</tspan>
      </text>
    </g>
    <g transform="translate(501.458,656.15528)" class="stop" id="184">
      <path d="m 6.6816929,0.50008477 a 6.4356605,8.7588836 0 0 1 -12.871321,0 6.4356605,8.7588836 0 1 1 12.871321,0 z" />
      <rect height="7.0694928" width="17.539423" x="-8.6005955" y="-2.8380687" />
      <text y="2.6793449" x="-0.15570182">
        <tspan>184</tspan>
      </text>
    </g>
    <g transform="translate(549.07382,687.16093)" class="stop" id="185">
      <path d="m 6.6816929,0.50008477 a 6.4356605,8.7588836 0 0 1 -12.871321,0 6.4356605,8.7588836 0 1 1 12.871321,0 z" />
      <rect height="7.0694928" width="17.539423" x="-8.6005955" y="-2.8380687" />
      <text y="2.6793449" x="-0.15570182">
        <tspan>185</tspan>
      </text>
    </g>
    <g transform="translate(607.32015,679.63099)" class="stop" id="186">
      <path d="m 6.6816929,0.50008477 a 6.4356605,8.7588836 0 0 1 -12.871321,0 6.4356605,8.7588836 0 1 1 12.871321,0 z" />
      <rect height="7.0694928" width="17.539423" x="-8.6005955" y="-2.8380687" />
      <text y="2.6793449" x="-0.15570182">
        <tspan>186</tspan>
      </text>
    </g>
    <g transform="translate(693.69303,661.91347)" class="stop" id="187">
      <path d="m 6.6816929,0.50008477 a 6.4356605,8.7588836 0 0 1 -12.871321,0 6.4356605,8.7588836 0 1 1 12.871321,0 z" />
      <rect height="7.0694928" width="17.539423" x="-8.6005955" y="-2.8380687" />
      <text y="2.6793449" x="-0.15570182">
        <tspan>187</tspan>
      </text>
    </g>
    <g transform="translate(779.18004,666.78579)" class="stop" id="188">
      <path d="m 6.6816929,0.50008477 a 6.4356605,8.7588836 0 0 1 -12.871321,0 6.4356605,8.7588836 0 1 1 12.871321,0 z" />
      <rect height="7.0694928" width="17.539423" x="-8.6005955" y="-2.8380687" />
      <text y="2.6793449" x="-0.15570182">
        <tspan>188</tspan>
      </text>
    </g>
    <g transform="translate(82.660262,690.2615)" class="stop" id="189">
      <path d="m 6.6816929,0.50008477 a 6.4356605,8.7588836 0 0 1 -12.871321,0 6.4356605,8.7588836 0 1 1 12.871321,0 z" />
      <rect height="7.0694928" width="17.539423" x="-8.6005955" y="-2.8380687" />
      <text y="2.6793449" x="-0.15570182">
        <tspan>189</tspan>
      </text>
    </g>
    <g transform="translate(122.08174,714.62308)" class="stop" id="190">
      <path d="m 6.6816929,0.50008477 a 6.4356605,8.7588836 0 0 1 -12.871321,0 6.4356605,8.7588836 0 1 1 12.871321,0 z" />
      <rect height="7.0694928" width="17.539423" x="-8.6005955" y="-2.8380687" />
      <text y="2.6793449" x="-0.15570182">
        <tspan>190</tspan>
      </text>
    </g>
    <g transform="translate(180.771,673.65133)" class="stop" id="191">
      <path d="m 6.6816929,0.50008477 a 6.4356605,8.7588836 0 0 1 -12.871321,0 6.4356605,8.7588836 0 1 1 12.871321,0 z" />
      <rect height="7.0694928" width="17.539423" x="-8.6005955" y="-2.8380687" />
      <text y="2.6793449" x="-0.15570182">
        <tspan>191</tspan>
      </text>
    </g>
    <g transform="translate(191.18004,725.25359)" class="stop" id="192">
      <path d="m 6.6816929,0.50008477 a 6.4356605,8.7588836 0 0 1 -12.871321,0 6.4356605,8.7588836 0 1 1 12.871321,0 z" />
      <rect height="7.0694928" width="17.539423" x="-8.6005955" y="-2.8380687" />
      <text y="2.6793449" x="-0.15570182">
        <tspan>192</tspan>
      </text>
    </g>
    <g transform="translate(320.29642,676.75189)" class="stop" id="193">
      <path d="m 6.6816929,0.50008477 a 6.4356605,8.7588836 0 0 1 -12.871321,0 6.4356605,8.7588836 0 1 1 12.871321,0 z" />
      <rect height="7.0694928" width="17.539423" x="-8.6005955" y="-2.8380687" />
      <text y="2.6793449" x="-0.15570182">
        <tspan>193</tspan>
      </text>
    </g>
    <g transform="translate(334.24896,696.24116)" class="stop" id="194"
       inkscape:transform-center-x="2.6576272"
       inkscape:transform-center-y="-5.7581922">
      <path d="m 6.6816929,0.50008477 a 6.4356605,8.7588836 0 0 1 -12.871321,0 6.4356605,8.7588836 0 1 1 12.871321,0 z" />
      <rect height="7.0694928" width="17.539423" x="-8.6005955" y="-2.8380687" />
      <text y="2.6793449" x="-0.15570182">
        <tspan>194</tspan>
      </text>
    </g>
    <g transform="translate(369.90546,696.46262)" class="stop" id="195">
      <path d="m 6.6816929,0.50008477 a 6.4356605,8.7588836 0 0 1 -12.871321,0 6.4356605,8.7588836 0 1 1 12.871321,0 z" />
      <rect height="7.0694928" width="17.539423" x="-8.6005955" y="-2.8380687" />
      <text y="2.6793449" x="-0.15570182">
        <tspan>195</tspan>
      </text>
    </g>
    <g transform="translate(429.48061,666.34285)" class="stop" id="196">
      <path d="m 6.6816929,0.50008477 a 6.4356605,8.7588836 0 0 1 -12.871321,0 6.4356605,8.7588836 0 1 1 12.871321,0 z" />
      <rect height="7.0694928" width="17.539423" x="-8.6005955" y="-2.8380687" />
      <text y="2.6793449" x="-0.15570182">
        <tspan>196</tspan>
      </text>
    </g>
    <g transform="translate(437.45348,704.21404)" class="stop" id="197">
      <path d="m 6.6816929,0.50008477 a 6.4356605,8.7588836 0 0 1 -12.871321,0 6.4356605,8.7588836 0 1 1 12.871321,0 z" />
      <rect height="7.0694928" width="17.539423" x="-8.6005955" y="-2.8380687" />
      <text y="2.6793449" x="-0.15570182">
        <tspan>197</tspan>
      </text>
    </g>
    <g transform="translate(646.74162,733.66941)" class="stop" id="198">
      <path d="m 6.6816929,0.50008477 a 6.4356605,8.7588836 0 0 1 -12.871321,0 6.4356605,8.7588836 0 1 1 12.871321,0 z" />
      <rect height="7.0694928" width="17.539423" x="-8.6005955" y="-2.8380687" />
      <text y="2.6793449" x="-0.15570182">
        <tspan>198</tspan>
      </text>
    </g>
    <g transform="translate(787.59585,738.32025)" class="stop" id="199">
      <path d="m 6.6816929,0.50008477 a 6.4356605,8.7588836 0 0 1 -12.871321,0 6.4356605,8.7588836 0 1 1 12.871321,0 z" />
      <rect height="7.0694928" width="17.539423" x="-8.6005955" y="-2.8380687" />
      <text y="2.6793449" x="-0.15570182">
        <tspan>199</tspan>
      </text>
    </g>
  </g>
</svg>
